HIERARCHY
ROOT Hip
{
	OFFSET 0.000000 0.000000 0.000000 
	CHANNELS 6 Xposition Yposition Zposition Xrotation Yrotation Zrotation
	JOINT LowerSpine
	{
		OFFSET 0.000000 9.015400 -4.878700 
		CHANNELS 3 Xrotation Yrotation Zrotation
		JOINT MiddleSpine
		{
			OFFSET 0.000000 8.227200 0.429800 
			CHANNELS 3 Xrotation Yrotation Zrotation
			JOINT Chest
			{
				OFFSET 0.000000 10.180300 -2.266000 
				CHANNELS 3 Xrotation Yrotation Zrotation
				JOINT Neck
				{
					OFFSET -0.000100 29.121000 3.317500 
					CHANNELS 3 Xrotation Yrotation Zrotation
					JOINT Head
					{
						OFFSET 0.000000 9.353800 2.394300 
						CHANNELS 3 Xrotation Yrotation Zrotation
						End Site
						{
							OFFSET -0.000100 18.226500 -1.149700 
						}
					}
				}
				JOINT LClavicle
				{
					OFFSET 2.316100 22.139000 7.585000 
					CHANNELS 3 Xrotation Yrotation Zrotation
					JOINT LShoulder
					{
						OFFSET 13.530800 3.175600 -5.138400 
						CHANNELS 3 Xrotation Yrotation Zrotation
						JOINT LForearm
						{
							OFFSET 28.742001 -0.102000 -0.249000 
							CHANNELS 3 Xrotation Yrotation Zrotation
							JOINT LHand
							{
								OFFSET 23.976999 0.069500 -0.143600 
								CHANNELS 3 Xrotation Yrotation Zrotation
								JOINT LFinger1
								{
									OFFSET 9.292800 0.812700 2.581100 
									CHANNELS 3 Xrotation Yrotation Zrotation
									JOINT LFinger11
									{
										OFFSET 3.476000 -0.847600 0.612500 
										CHANNELS 3 Xrotation Yrotation Zrotation
										JOINT LFinger12
										{
											OFFSET 2.373000 -0.578800 0.418200 
											CHANNELS 3 Xrotation Yrotation Zrotation
											End Site
											{
												OFFSET 1.688600 -0.504100 0.273900 
											}
										}
									}
								}
								JOINT LFinger2
								{
									OFFSET 9.431500 0.938500 0.224700 
									CHANNELS 3 Xrotation Yrotation Zrotation
									JOINT LFinger21
									{
										OFFSET 4.297800 0.012000 -0.025400 
										CHANNELS 3 Xrotation Yrotation Zrotation
										JOINT LFinger22
										{
											OFFSET 2.382300 0.007300 -0.014500 
											CHANNELS 3 Xrotation Yrotation Zrotation
											End Site
											{
												OFFSET 2.139700 -0.151100 0.002900 
											}
										}
									}
								}
								JOINT LFinger3
								{
									OFFSET 8.938300 0.626400 -2.114600 
									CHANNELS 3 Xrotation Yrotation Zrotation
									JOINT LFinger31
									{
										OFFSET 3.899800 -0.197400 -0.244200 
										CHANNELS 3 Xrotation Yrotation Zrotation
										JOINT LFinger32
										{
											OFFSET 2.222300 -0.111800 -0.139600 
											CHANNELS 3 Xrotation Yrotation Zrotation
											End Site
											{
												OFFSET 1.964900 -0.241600 -0.092900 
											}
										}
									}
								}
								JOINT LFinger4
								{
									OFFSET 8.294400 -0.630300 -3.652000 
									CHANNELS 3 Xrotation Yrotation Zrotation
									JOINT LFinger41
									{
										OFFSET 2.398800 -0.500200 -0.662200 
										CHANNELS 3 Xrotation Yrotation Zrotation
										JOINT LFinger42
										{
											OFFSET 1.759100 -0.366300 -0.485900 
											CHANNELS 3 Xrotation Yrotation Zrotation
											End Site
											{
												OFFSET 1.561300 -0.429000 -0.358200 
											}
										}
									}
								}
								JOINT LFinger0
								{
									OFFSET 1.922400 -1.455000 1.457400 
									CHANNELS 3 Xrotation Yrotation Zrotation
									JOINT LFinger01
									{
										OFFSET 3.579100 -1.175400 2.698400 
										CHANNELS 3 Xrotation Yrotation Zrotation
										JOINT LFinger02
										{
											OFFSET 2.356800 -0.843300 1.698000 
											CHANNELS 3 Xrotation Yrotation Zrotation
											End Site
											{
												OFFSET 1.733100 -0.596600 1.186700 
											}
										}
									}
								}
							}
						}
					}
				}
				JOINT RClavicle
				{
					OFFSET -2.316100 22.139000 7.585000 
					CHANNELS 3 Xrotation Yrotation Zrotation
					JOINT RShoulder
					{
						OFFSET -13.533200 3.176200 -5.139300 
						CHANNELS 3 Xrotation Yrotation Zrotation
						JOINT RForearm
						{
							OFFSET -28.742001 -0.102000 -0.249000 
							CHANNELS 3 Xrotation Yrotation Zrotation
							JOINT RHand
							{
								OFFSET -23.976999 0.069600 -0.143600 
								CHANNELS 3 Xrotation Yrotation Zrotation
								JOINT RFinger1
								{
									OFFSET -9.292800 0.812800 2.581100 
									CHANNELS 3 Xrotation Yrotation Zrotation
									JOINT RFinger11
									{
										OFFSET -3.476000 -0.847600 0.612500 
										CHANNELS 3 Xrotation Yrotation Zrotation
										JOINT RFinger12
										{
											OFFSET -2.372900 -0.578900 0.418300 
											CHANNELS 3 Xrotation Yrotation Zrotation
											End Site
											{
												OFFSET -1.688600 -0.504100 0.273900 
											}
										}
									}
								}
								JOINT RFinger2
								{
									OFFSET -9.431500 0.938600 0.224700 
									CHANNELS 3 Xrotation Yrotation Zrotation
									JOINT RFinger21
									{
										OFFSET -4.297900 0.012000 -0.025400 
										CHANNELS 3 Xrotation Yrotation Zrotation
										JOINT RFinger22
										{
											OFFSET -2.382300 0.007300 -0.014600 
											CHANNELS 3 Xrotation Yrotation Zrotation
											End Site
											{
												OFFSET -2.139700 -0.151100 0.002900 
											}
										}
									}
								}
								JOINT RFinger3
								{
									OFFSET -8.938300 0.626400 -2.114700 
									CHANNELS 3 Xrotation Yrotation Zrotation
									JOINT RFinger31
									{
										OFFSET -3.899800 -0.197400 -0.244200 
										CHANNELS 3 Xrotation Yrotation Zrotation
										JOINT RFinger32
										{
											OFFSET -2.222300 -0.111800 -0.139600 
											CHANNELS 3 Xrotation Yrotation Zrotation
											End Site
											{
												OFFSET -1.964900 -0.241600 -0.092900 
											}
										}
									}
								}
								JOINT RFinger4
								{
									OFFSET -8.294400 -0.630300 -3.652000 
									CHANNELS 3 Xrotation Yrotation Zrotation
									JOINT RFinger41
									{
										OFFSET -2.398800 -0.500200 -0.662200 
										CHANNELS 3 Xrotation Yrotation Zrotation
										JOINT RFinger42
										{
											OFFSET -1.759000 -0.366200 -0.485900 
											CHANNELS 3 Xrotation Yrotation Zrotation
											End Site
											{
												OFFSET -1.561300 -0.429000 -0.358200 
											}
										}
									}
								}
								JOINT RFinger0
								{
									OFFSET -1.922400 -1.454900 1.457200 
									CHANNELS 3 Xrotation Yrotation Zrotation
									JOINT RFinger01
									{
										OFFSET -3.579100 -1.175600 2.698500 
										CHANNELS 3 Xrotation Yrotation Zrotation
										JOINT RFinger02
										{
											OFFSET -2.356700 -0.843200 1.697900 
											CHANNELS 3 Xrotation Yrotation Zrotation
											End Site
											{
												OFFSET -1.733100 -0.596600 1.186700 
											}
										}
									}
								}
							}
						}
					}
				}
			}
		}
	}
	JOINT RThigh
	{
		OFFSET -9.644200 4.075200 -0.795000 
		CHANNELS 3 Xrotation Yrotation Zrotation
		JOINT RShin
		{
			OFFSET -0.771700 -41.948101 0.000000 
			CHANNELS 3 Xrotation Yrotation Zrotation
			JOINT RFoot
			{
				OFFSET 0.000000 -41.190498 0.000000 
				CHANNELS 3 Xrotation Yrotation Zrotation
				JOINT RToe
				{
					OFFSET 0.000000 -4.527200 9.467000 
					CHANNELS 3 Xrotation Yrotation Zrotation
					End Site
					{
						OFFSET 0.000000 0.000000 6.351000 
					}
				}
			}
		}
	}
	JOINT LThigh
	{
		OFFSET 9.644100 4.075500 -0.795000 
		CHANNELS 3 Xrotation Yrotation Zrotation
		JOINT LShin
		{
			OFFSET 0.771800 -41.948399 0.000000 
			CHANNELS 3 Xrotation Yrotation Zrotation
			JOINT LFoot
			{
				OFFSET 0.000000 -41.190498 0.000000 
				CHANNELS 3 Xrotation Yrotation Zrotation
				JOINT LToe
				{
					OFFSET 0.000000 -4.527200 9.467000 
					CHANNELS 3 Xrotation Yrotation Zrotation
					End Site
					{
						OFFSET 0.000000 0.000000 6.351000 
					}
				}
			}
		}
	}
}
MOTION
Frames: 6
Frame Time: 0.033333
-0.319206 84.544510 -3.772515 -6.455862 1.926552 0.624248 0.000000 0.000000 0.000000 3.218553 0.858123 -0.383591 3.218553 0.858123 -0.383591 0.000000 0.000000 0.000000 0.000000 0.000000 0.000000 0.000000 0.000000 -14.652820 14.364080 -8.368241 -58.683128 0.000000 -37.282848 0.000000 0.000000 0.000000 0.000000 0.000000 0.000000 0.000000 0.000000 0.000000 0.000000 0.000000 0.000000 0.000000 0.000000 0.000000 0.000000 0.000000 0.000000 0.000000 0.000000 0.000000 0.000000 0.000000 0.000000 0.000000 0.000000 0.000000 0.000000 0.000000 0.000000 0.000000 0.000000 0.000000 0.000000 0.000000 0.000000 0.000000 0.000000 0.000000 0.000000 0.000000 0.000000 0.000000 0.000000 0.000000 0.000000 0.000000 0.000000 0.000000 0.000000 0.000000 15.104430 13.419070 15.192160 59.047840 0.000000 34.237499 0.000000 0.000000 0.000000 0.000000 0.000000 0.000000 0.000000 0.000000 0.000000 0.000000 0.000000 0.000000 0.000000 0.000000 0.000000 0.000000 0.000000 0.000000 0.000000 0.000000 0.000000 0.000000 0.000000 0.000000 0.000000 0.000000 0.000000 0.000000 0.000000 0.000000 0.000000 0.000000 0.000000 0.000000 0.000000 0.000000 0.000000 0.000000 0.000000 0.000000 0.000000 0.000000 0.000000 0.000000 0.000000 0.000000 0.000000 0.000000 0.000000 -0.948791 -8.041336 -3.460488 13.985940 0.000001 0.000000 0.204890 -1.095131 -0.521710 0.000000 0.000000 0.000000 3.201726 1.190785 3.450310 7.729327 0.000001 0.000000 -0.518883 -1.248254 -0.604148 0.000000 0.000000 0.000000 
-0.272816 84.537720 -3.590839 -6.518945 1.901012 0.810344 0.000000 0.000000 0.000000 3.217194 0.895309 -0.497766 3.217194 0.895309 -0.497766 0.000000 0.000000 0.000000 0.000000 0.000000 0.000000 0.000000 0.000000 -14.666150 14.578260 -8.064224 -58.627361 0.000000 -37.968712 0.000000 0.000000 0.000000 0.000000 0.000000 0.000000 0.000000 0.000000 0.000000 0.000000 0.000000 0.000000 0.000000 0.000000 0.000000 0.000000 0.000000 0.000000 0.000000 0.000000 0.000000 0.000000 0.000000 0.000000 0.000000 0.000000 0.000000 0.000000 0.000000 0.000000 0.000000 0.000000 0.000000 0.000000 0.000000 0.000000 0.000000 0.000000 0.000000 0.000000 0.000000 0.000000 0.000000 0.000000 0.000000 0.000000 0.000000 0.000000 0.000000 0.000000 0.000000 15.126070 13.269800 15.200340 59.020802 0.000000 34.465641 0.000000 0.000000 0.000000 0.000000 0.000000 0.000000 0.000000 0.000000 0.000000 0.000000 0.000000 0.000000 0.000000 0.000000 0.000000 0.000000 0.000000 0.000000 0.000000 0.000000 0.000000 0.000000 0.000000 0.000000 0.000000 0.000000 0.000000 0.000000 0.000000 0.000000 0.000000 0.000000 0.000000 0.000000 0.000000 0.000000 0.000000 0.000000 0.000000 0.000000 0.000000 0.000000 0.000000 0.000000 0.000000 0.000000 0.000000 0.000000 0.000000 -0.788268 -8.048347 -3.669626 13.931330 0.000001 0.000000 0.148434 -0.826001 -0.393694 0.000000 0.000000 0.000000 3.513139 1.238486 3.242990 7.454005 0.000001 0.000000 -0.427993 -1.228024 -0.592812 0.000000 0.000000 0.000000 
-0.268026 84.520340 -3.447268 -6.540128 1.696665 0.922603 0.000000 0.000000 0.000000 3.240409 0.959682 -0.594378 3.240409 0.959682 -0.594378 0.000000 0.000000 0.000000 0.000000 0.000000 0.000000 0.000000 0.000000 -14.682550 14.901370 -7.575370 -58.579929 0.000000 -39.164051 0.000000 0.000000 0.000000 0.000000 0.000000 0.000000 0.000000 0.000000 0.000000 0.000000 0.000000 0.000000 0.000000 0.000000 0.000000 0.000000 0.000000 0.000000 0.000000 0.000000 0.000000 0.000000 0.000000 0.000000 0.000000 0.000000 0.000000 0.000000 0.000000 0.000000 0.000000 0.000000 0.000000 0.000000 0.000000 0.000000 0.000000 0.000000 0.000000 0.000000 0.000000 0.000000 0.000000 0.000000 0.000000 0.000000 0.000000 0.000000 0.000000 0.000000 0.000000 15.143620 12.964020 15.561310 59.004601 0.000000 34.117611 0.000000 0.000000 0.000000 0.000000 0.000000 0.000000 0.000000 0.000000 0.000000 0.000000 0.000000 0.000000 0.000000 0.000000 0.000000 0.000000 0.000000 0.000000 0.000000 0.000000 0.000000 0.000000 0.000000 0.000000 0.000000 0.000000 0.000000 0.000000 0.000000 0.000000 0.000000 0.000000 0.000000 0.000000 0.000000 0.000000 0.000000 0.000000 0.000000 0.000000 0.000000 0.000000 0.000000 0.000000 0.000000 0.000000 0.000000 0.000000 0.000000 -0.847161 -7.990121 -3.794969 14.150260 0.000001 0.000000 0.081773 -0.662131 -0.315820 0.000000 0.000000 0.000000 3.678835 1.272336 3.121531 7.417127 0.000001 0.000000 -0.410970 -1.095030 -0.528496 0.000000 0.000000 0.000000 
-0.286837 84.505844 -3.298093 -6.586905 1.447541 0.996218 0.000000 0.000000 0.000000 3.276902 1.052205 -0.664557 3.276902 1.052205 -0.664557 0.000000 0.000000 0.000000 0.000000 0.000000 0.000000 0.000000 0.000000 -14.726950 15.114730 -7.241017 -58.507999 0.000000 -40.023129 0.000000 0.000000 0.000000 0.000000 0.000000 0.000000 0.000000 0.000000 0.000000 0.000000 0.000000 0.000000 0.000000 0.000000 0.000000 0.000000 0.000000 0.000000 0.000000 0.000000 0.000000 0.000000 0.000000 0.000000 0.000000 0.000000 0.000000 0.000000 0.000000 0.000000 0.000000 0.000000 0.000000 0.000000 0.000000 0.000000 0.000000 0.000000 0.000000 0.000000 0.000000 0.000000 0.000000 0.000000 0.000000 0.000000 0.000000 0.000000 0.000000 0.000000 0.000000 15.138780 12.645250 15.977960 58.983349 0.000000 33.670280 0.000000 0.000000 0.000000 0.000000 0.000000 0.000000 0.000000 0.000000 0.000000 0.000000 0.000000 0.000000 0.000000 0.000000 0.000000 0.000000 0.000000 0.000000 0.000000 0.000000 0.000000 0.000000 0.000000 0.000000 0.000000 0.000000 0.000000 0.000000 0.000000 0.000000 0.000000 0.000000 0.000000 0.000000 0.000000 0.000000 0.000000 0.000000 0.000000 0.000000 0.000000 0.000000 0.000000 0.000000 0.000000 0.000000 0.000000 0.000000 0.000000 -0.866824 -7.881473 -3.855381 14.354650 0.000001 0.000000 0.016843 -0.516164 -0.246408 0.000000 0.000000 0.000000 3.862529 1.298475 3.047413 7.401742 0.000001 0.000000 -0.358599 -0.919349 -0.443098 0.000000 0.000000 0.000000 
-0.281447 84.507065 -3.103020 -6.708617 1.192552 1.101545 0.000000 0.000000 0.000000 3.313359 1.166032 -0.712157 3.313359 1.166032 -0.712157 0.000000 0.000000 0.000000 0.000000 0.000000 0.000000 0.000000 0.000000 -14.770810 15.155170 -7.193216 -58.455448 0.000000 -40.129910 0.000000 0.000000 0.000000 0.000000 0.000000 0.000000 0.000000 0.000000 0.000000 0.000000 0.000000 0.000000 0.000000 0.000000 0.000000 0.000000 0.000000 0.000000 0.000000 0.000000 0.000000 0.000000 0.000000 0.000000 0.000000 0.000000 0.000000 0.000000 0.000000 0.000000 0.000000 0.000000 0.000000 0.000000 0.000000 0.000000 0.000000 0.000000 0.000000 0.000000 0.000000 0.000000 0.000000 0.000000 0.000000 0.000000 0.000000 0.000000 0.000000 0.000000 0.000000 15.122440 12.490170 16.107929 58.941978 0.000000 33.502312 0.000000 0.000000 0.000000 0.000000 0.000000 0.000000 0.000000 0.000000 0.000000 0.000000 0.000000 0.000000 0.000000 0.000000 0.000000 0.000000 0.000000 0.000000 0.000000 0.000000 0.000000 0.000000 0.000000 0.000000 0.000000 0.000000 0.000000 0.000000 0.000000 0.000000 0.000000 0.000000 0.000000 0.000000 0.000000 0.000000 0.000000 0.000000 0.000000 0.000000 0.000000 0.000000 0.000000 0.000000 0.000000 0.000000 0.000000 0.000000 0.000000 -0.741266 -7.732947 -3.958648 14.480110 0.000001 0.000000 -0.100685 -0.274782 -0.131318 0.000000 0.000000 0.000000 4.305200 1.322723 2.917075 7.055531 0.000001 0.000000 -0.141107 -0.707097 -0.339267 0.000000 0.000000 0.000000 
-0.247658 84.526176 -2.862343 -6.893267 0.980809 1.232788 0.000000 0.000000 0.000000 3.338974 1.291127 -0.749190 3.338974 1.291127 -0.749190 0.000000 0.000000 0.000000 0.000000 0.000000 0.000000 0.000000 0.000000 -14.778510 15.083820 -7.341917 -58.439209 0.000000 -39.738461 0.000000 0.000000 0.000000 0.000000 0.000000 0.000000 0.000000 0.000000 0.000000 0.000000 0.000000 0.000000 0.000000 0.000000 0.000000 0.000000 0.000000 0.000000 0.000000 0.000000 0.000000 0.000000 0.000000 0.000000 0.000000 0.000000 0.000000 0.000000 0.000000 0.000000 0.000000 0.000000 0.000000 0.000000 0.000000 0.000000 0.000000 0.000000 0.000000 0.000000 0.000000 0.000000 0.000000 0.000000 0.000000 0.000000 0.000000 0.000000 0.000000 0.000000 0.000000 15.100120 12.525860 15.921820 58.914211 0.000000 33.485859 0.000000 0.000000 0.000000 0.000000 0.000000 0.000000 0.000000 0.000000 0.000000 0.000000 0.000000 0.000000 0.000000 0.000000 0.000000 0.000000 0.000000 0.000000 0.000000 0.000000 0.000000 0.000000 0.000000 0.000000 0.000000 0.000000 0.000000 0.000000 0.000000 0.000000 0.000000 0.000000 0.000000 0.000000 0.000000 0.000000 0.000000 0.000000 0.000000 0.000000 0.000000 0.000000 0.000000 0.000000 0.000000 0.000000 0.000000 0.000000 0.000000 -0.448907 -7.546249 -4.089786 14.470630 0.000001 0.000000 -0.190156 -0.170115 -0.081781 0.000000 0.000000 0.000000 4.921472 1.340656 2.741864 6.516914 0.000001 0.000000 0.189416 -0.490507 -0.233763 0.000000 0.000000 0.000000 
